<mxfile host="Electron" modified="2024-06-27T15:03:04.661Z" agent="Mozilla/5.0 (Windows NT 10.0; Win64; x64) AppleWebKit/537.36 (KHTML, like Gecko) draw.io/24.6.1 Chrome/124.0.6367.207 Electron/30.0.6 Safari/537.36" version="24.6.1" etag="31tJ-i-_GnSuL0C2y_Lr" type="device">
  <diagram id="EN65nq52vDld7WM1jBW8" name="Page-1">
    <mxGraphModel dx="1036" dy="614" grid="1" gridSize="9" guides="1" tooltips="1" connect="1" arrows="1" fold="1" page="1" pageScale="1" pageWidth="850" pageHeight="1100" background="none" math="0" shadow="0">
      <root>
        <mxCell id="0" />
        <mxCell id="1" parent="0" />
        <mxCell id="ZLQENoYKwVtpYtxvngLg-191" value="Employee" style="swimlane;fontStyle=0;childLayout=stackLayout;horizontal=1;startSize=30;horizontalStack=0;resizeParent=1;resizeParentMax=0;resizeLast=0;collapsible=1;marginBottom=0;whiteSpace=wrap;html=1;" vertex="1" parent="1">
          <mxGeometry x="10" y="30" width="162" height="990" as="geometry">
            <mxRectangle x="10" y="30" width="90" height="30" as="alternateBounds" />
          </mxGeometry>
        </mxCell>
        <mxCell id="ZLQENoYKwVtpYtxvngLg-192" value="Id" style="text;strokeColor=none;fillColor=none;align=left;verticalAlign=middle;spacingLeft=4;spacingRight=4;overflow=hidden;points=[[0,0.5],[1,0.5]];portConstraint=eastwest;rotatable=0;whiteSpace=wrap;html=1;" vertex="1" parent="ZLQENoYKwVtpYtxvngLg-191">
          <mxGeometry y="30" width="162" height="30" as="geometry" />
        </mxCell>
        <mxCell id="ZLQENoYKwVtpYtxvngLg-193" value="FirsName" style="text;strokeColor=none;fillColor=none;align=left;verticalAlign=middle;spacingLeft=4;spacingRight=4;overflow=hidden;points=[[0,0.5],[1,0.5]];portConstraint=eastwest;rotatable=0;whiteSpace=wrap;html=1;" vertex="1" parent="ZLQENoYKwVtpYtxvngLg-191">
          <mxGeometry y="60" width="162" height="30" as="geometry" />
        </mxCell>
        <mxCell id="ZLQENoYKwVtpYtxvngLg-194" value="LastName" style="text;strokeColor=none;fillColor=none;align=left;verticalAlign=middle;spacingLeft=4;spacingRight=4;overflow=hidden;points=[[0,0.5],[1,0.5]];portConstraint=eastwest;rotatable=0;whiteSpace=wrap;html=1;" vertex="1" parent="ZLQENoYKwVtpYtxvngLg-191">
          <mxGeometry y="90" width="162" height="30" as="geometry" />
        </mxCell>
        <mxCell id="ZLQENoYKwVtpYtxvngLg-199" value="NationalCode" style="text;strokeColor=none;fillColor=none;align=left;verticalAlign=middle;spacingLeft=4;spacingRight=4;overflow=hidden;points=[[0,0.5],[1,0.5]];portConstraint=eastwest;rotatable=0;whiteSpace=wrap;html=1;" vertex="1" parent="ZLQENoYKwVtpYtxvngLg-191">
          <mxGeometry y="120" width="162" height="30" as="geometry" />
        </mxCell>
        <mxCell id="ZLQENoYKwVtpYtxvngLg-200" value="Mobile" style="text;strokeColor=none;fillColor=none;align=left;verticalAlign=middle;spacingLeft=4;spacingRight=4;overflow=hidden;points=[[0,0.5],[1,0.5]];portConstraint=eastwest;rotatable=0;whiteSpace=wrap;html=1;" vertex="1" parent="ZLQENoYKwVtpYtxvngLg-191">
          <mxGeometry y="150" width="162" height="30" as="geometry" />
        </mxCell>
        <mxCell id="ZLQENoYKwVtpYtxvngLg-201" value="Homephone" style="text;strokeColor=none;fillColor=none;align=left;verticalAlign=middle;spacingLeft=4;spacingRight=4;overflow=hidden;points=[[0,0.5],[1,0.5]];portConstraint=eastwest;rotatable=0;whiteSpace=wrap;html=1;" vertex="1" parent="ZLQENoYKwVtpYtxvngLg-191">
          <mxGeometry y="180" width="162" height="30" as="geometry" />
        </mxCell>
        <mxCell id="ZLQENoYKwVtpYtxvngLg-208" value="CountryName" style="text;strokeColor=none;fillColor=none;align=left;verticalAlign=middle;spacingLeft=4;spacingRight=4;overflow=hidden;points=[[0,0.5],[1,0.5]];portConstraint=eastwest;rotatable=0;whiteSpace=wrap;html=1;" vertex="1" parent="ZLQENoYKwVtpYtxvngLg-191">
          <mxGeometry y="210" width="162" height="30" as="geometry" />
        </mxCell>
        <mxCell id="ZLQENoYKwVtpYtxvngLg-209" value="CityName" style="text;strokeColor=none;fillColor=none;align=left;verticalAlign=middle;spacingLeft=4;spacingRight=4;overflow=hidden;points=[[0,0.5],[1,0.5]];portConstraint=eastwest;rotatable=0;whiteSpace=wrap;html=1;" vertex="1" parent="ZLQENoYKwVtpYtxvngLg-191">
          <mxGeometry y="240" width="162" height="30" as="geometry" />
        </mxCell>
        <mxCell id="ZLQENoYKwVtpYtxvngLg-210" value="Address" style="text;strokeColor=none;fillColor=none;align=left;verticalAlign=middle;spacingLeft=4;spacingRight=4;overflow=hidden;points=[[0,0.5],[1,0.5]];portConstraint=eastwest;rotatable=0;whiteSpace=wrap;html=1;" vertex="1" parent="ZLQENoYKwVtpYtxvngLg-191">
          <mxGeometry y="270" width="162" height="30" as="geometry" />
        </mxCell>
        <mxCell id="ZLQENoYKwVtpYtxvngLg-213" value="LastEducationalCertificate" style="text;strokeColor=none;fillColor=none;align=left;verticalAlign=middle;spacingLeft=4;spacingRight=4;overflow=hidden;points=[[0,0.5],[1,0.5]];portConstraint=eastwest;rotatable=0;whiteSpace=wrap;html=1;opacity=30;" vertex="1" parent="ZLQENoYKwVtpYtxvngLg-191">
          <mxGeometry y="300" width="162" height="30" as="geometry" />
        </mxCell>
        <mxCell id="ZLQENoYKwVtpYtxvngLg-211" value="GPAOfThelastDegree" style="text;strokeColor=none;fillColor=none;align=left;verticalAlign=middle;spacingLeft=4;spacingRight=4;overflow=hidden;points=[[0,0.5],[1,0.5]];portConstraint=eastwest;rotatable=0;whiteSpace=wrap;html=1;opacity=30;" vertex="1" parent="ZLQENoYKwVtpYtxvngLg-191">
          <mxGeometry y="330" width="162" height="30" as="geometry" />
        </mxCell>
        <mxCell id="ZLQENoYKwVtpYtxvngLg-214" value="Gender" style="text;strokeColor=none;fillColor=none;align=left;verticalAlign=middle;spacingLeft=4;spacingRight=4;overflow=hidden;points=[[0,0.5],[1,0.5]];portConstraint=eastwest;rotatable=0;whiteSpace=wrap;html=1;opacity=30;" vertex="1" parent="ZLQENoYKwVtpYtxvngLg-191">
          <mxGeometry y="360" width="162" height="30" as="geometry" />
        </mxCell>
        <mxCell id="ZLQENoYKwVtpYtxvngLg-215" value="MaritalStatus" style="text;strokeColor=none;fillColor=none;align=left;verticalAlign=middle;spacingLeft=4;spacingRight=4;overflow=hidden;points=[[0,0.5],[1,0.5]];portConstraint=eastwest;rotatable=0;whiteSpace=wrap;html=1;opacity=30;" vertex="1" parent="ZLQENoYKwVtpYtxvngLg-191">
          <mxGeometry y="390" width="162" height="30" as="geometry" />
        </mxCell>
        <mxCell id="ZLQENoYKwVtpYtxvngLg-216" value="DateOfBirth" style="text;strokeColor=none;fillColor=none;align=left;verticalAlign=middle;spacingLeft=4;spacingRight=4;overflow=hidden;points=[[0,0.5],[1,0.5]];portConstraint=eastwest;rotatable=0;whiteSpace=wrap;html=1;opacity=30;" vertex="1" parent="ZLQENoYKwVtpYtxvngLg-191">
          <mxGeometry y="420" width="162" height="30" as="geometry" />
        </mxCell>
        <mxCell id="ZLQENoYKwVtpYtxvngLg-217" value="EmergencyContactNumber" style="text;strokeColor=none;fillColor=none;align=left;verticalAlign=middle;spacingLeft=4;spacingRight=4;overflow=hidden;points=[[0,0.5],[1,0.5]];portConstraint=eastwest;rotatable=0;whiteSpace=wrap;html=1;opacity=30;" vertex="1" parent="ZLQENoYKwVtpYtxvngLg-191">
          <mxGeometry y="450" width="162" height="30" as="geometry" />
        </mxCell>
        <mxCell id="ZLQENoYKwVtpYtxvngLg-218" value="SpouseNationalID" style="text;strokeColor=none;fillColor=none;align=left;verticalAlign=middle;spacingLeft=4;spacingRight=4;overflow=hidden;points=[[0,0.5],[1,0.5]];portConstraint=eastwest;rotatable=0;whiteSpace=wrap;html=1;opacity=30;" vertex="1" parent="ZLQENoYKwVtpYtxvngLg-191">
          <mxGeometry y="480" width="162" height="30" as="geometry" />
        </mxCell>
        <mxCell id="ZLQENoYKwVtpYtxvngLg-219" value="BloodType" style="text;strokeColor=none;fillColor=none;align=left;verticalAlign=middle;spacingLeft=4;spacingRight=4;overflow=hidden;points=[[0,0.5],[1,0.5]];portConstraint=eastwest;rotatable=0;whiteSpace=wrap;html=1;opacity=30;" vertex="1" parent="ZLQENoYKwVtpYtxvngLg-191">
          <mxGeometry y="510" width="162" height="30" as="geometry" />
        </mxCell>
        <mxCell id="ZLQENoYKwVtpYtxvngLg-220" value="MedicalHistory" style="text;strokeColor=none;fillColor=none;align=left;verticalAlign=middle;spacingLeft=4;spacingRight=4;overflow=hidden;points=[[0,0.5],[1,0.5]];portConstraint=eastwest;rotatable=0;whiteSpace=wrap;html=1;opacity=30;" vertex="1" parent="ZLQENoYKwVtpYtxvngLg-191">
          <mxGeometry y="540" width="162" height="30" as="geometry" />
        </mxCell>
        <mxCell id="ZLQENoYKwVtpYtxvngLg-221" value="EmployeeNumber" style="text;strokeColor=none;fillColor=none;align=left;verticalAlign=middle;spacingLeft=4;spacingRight=4;overflow=hidden;points=[[0,0.5],[1,0.5]];portConstraint=eastwest;rotatable=0;whiteSpace=wrap;html=1;opacity=30;" vertex="1" parent="ZLQENoYKwVtpYtxvngLg-191">
          <mxGeometry y="570" width="162" height="30" as="geometry" />
        </mxCell>
        <mxCell id="ZLQENoYKwVtpYtxvngLg-222" value="JobTitle" style="text;strokeColor=none;fillColor=none;align=left;verticalAlign=middle;spacingLeft=4;spacingRight=4;overflow=hidden;points=[[0,0.5],[1,0.5]];portConstraint=eastwest;rotatable=0;whiteSpace=wrap;html=1;opacity=30;" vertex="1" parent="ZLQENoYKwVtpYtxvngLg-191">
          <mxGeometry y="600" width="162" height="30" as="geometry" />
        </mxCell>
        <mxCell id="ZLQENoYKwVtpYtxvngLg-223" value="Department" style="text;strokeColor=none;fillColor=none;align=left;verticalAlign=middle;spacingLeft=4;spacingRight=4;overflow=hidden;points=[[0,0.5],[1,0.5]];portConstraint=eastwest;rotatable=0;whiteSpace=wrap;html=1;opacity=30;" vertex="1" parent="ZLQENoYKwVtpYtxvngLg-191">
          <mxGeometry y="630" width="162" height="30" as="geometry" />
        </mxCell>
        <mxCell id="ZLQENoYKwVtpYtxvngLg-224" value="HireDate" style="text;strokeColor=none;fillColor=none;align=left;verticalAlign=middle;spacingLeft=4;spacingRight=4;overflow=hidden;points=[[0,0.5],[1,0.5]];portConstraint=eastwest;rotatable=0;whiteSpace=wrap;html=1;opacity=30;" vertex="1" parent="ZLQENoYKwVtpYtxvngLg-191">
          <mxGeometry y="660" width="162" height="30" as="geometry" />
        </mxCell>
        <mxCell id="ZLQENoYKwVtpYtxvngLg-294" value="Salary" style="text;strokeColor=none;fillColor=none;align=left;verticalAlign=middle;spacingLeft=4;spacingRight=4;overflow=hidden;points=[[0,0.5],[1,0.5]];portConstraint=eastwest;rotatable=0;whiteSpace=wrap;html=1;opacity=30;" vertex="1" parent="ZLQENoYKwVtpYtxvngLg-191">
          <mxGeometry y="690" width="162" height="30" as="geometry" />
        </mxCell>
        <mxCell id="ZLQENoYKwVtpYtxvngLg-295" value="EmploymentStatus" style="text;strokeColor=none;fillColor=none;align=left;verticalAlign=middle;spacingLeft=4;spacingRight=4;overflow=hidden;points=[[0,0.5],[1,0.5]];portConstraint=eastwest;rotatable=0;whiteSpace=wrap;html=1;opacity=30;" vertex="1" parent="ZLQENoYKwVtpYtxvngLg-191">
          <mxGeometry y="720" width="162" height="30" as="geometry" />
        </mxCell>
        <mxCell id="ZLQENoYKwVtpYtxvngLg-296" value="WeeklyWorkingHours" style="text;strokeColor=none;fillColor=none;align=left;verticalAlign=middle;spacingLeft=4;spacingRight=4;overflow=hidden;points=[[0,0.5],[1,0.5]];portConstraint=eastwest;rotatable=0;whiteSpace=wrap;html=1;opacity=30;" vertex="1" parent="ZLQENoYKwVtpYtxvngLg-191">
          <mxGeometry y="750" width="162" height="30" as="geometry" />
        </mxCell>
        <mxCell id="ZLQENoYKwVtpYtxvngLg-297" value="RemainingLeaveDays" style="text;strokeColor=none;fillColor=none;align=left;verticalAlign=middle;spacingLeft=4;spacingRight=4;overflow=hidden;points=[[0,0.5],[1,0.5]];portConstraint=eastwest;rotatable=0;whiteSpace=wrap;html=1;opacity=30;" vertex="1" parent="ZLQENoYKwVtpYtxvngLg-191">
          <mxGeometry y="780" width="162" height="30" as="geometry" />
        </mxCell>
        <mxCell id="ZLQENoYKwVtpYtxvngLg-298" value="Supervisor" style="text;strokeColor=none;fillColor=none;align=left;verticalAlign=middle;spacingLeft=4;spacingRight=4;overflow=hidden;points=[[0,0.5],[1,0.5]];portConstraint=eastwest;rotatable=0;whiteSpace=wrap;html=1;opacity=30;" vertex="1" parent="ZLQENoYKwVtpYtxvngLg-191">
          <mxGeometry y="810" width="162" height="30" as="geometry" />
        </mxCell>
        <mxCell id="ZLQENoYKwVtpYtxvngLg-299" value="Skills" style="text;strokeColor=none;fillColor=none;align=left;verticalAlign=middle;spacingLeft=4;spacingRight=4;overflow=hidden;points=[[0,0.5],[1,0.5]];portConstraint=eastwest;rotatable=0;whiteSpace=wrap;html=1;opacity=30;" vertex="1" parent="ZLQENoYKwVtpYtxvngLg-191">
          <mxGeometry y="840" width="162" height="30" as="geometry" />
        </mxCell>
        <mxCell id="ZLQENoYKwVtpYtxvngLg-300" value="Certifications" style="text;strokeColor=none;fillColor=none;align=left;verticalAlign=middle;spacingLeft=4;spacingRight=4;overflow=hidden;points=[[0,0.5],[1,0.5]];portConstraint=eastwest;rotatable=0;whiteSpace=wrap;html=1;opacity=30;" vertex="1" parent="ZLQENoYKwVtpYtxvngLg-191">
          <mxGeometry y="870" width="162" height="30" as="geometry" />
        </mxCell>
        <mxCell id="ZLQENoYKwVtpYtxvngLg-301" value="PerformanceReview" style="text;strokeColor=none;fillColor=none;align=left;verticalAlign=middle;spacingLeft=4;spacingRight=4;overflow=hidden;points=[[0,0.5],[1,0.5]];portConstraint=eastwest;rotatable=0;whiteSpace=wrap;html=1;opacity=30;" vertex="1" parent="ZLQENoYKwVtpYtxvngLg-191">
          <mxGeometry y="900" width="162" height="30" as="geometry" />
        </mxCell>
        <mxCell id="ZLQENoYKwVtpYtxvngLg-302" value="RecentProjects" style="text;strokeColor=none;fillColor=none;align=left;verticalAlign=middle;spacingLeft=4;spacingRight=4;overflow=hidden;points=[[0,0.5],[1,0.5]];portConstraint=eastwest;rotatable=0;whiteSpace=wrap;html=1;opacity=30;" vertex="1" parent="ZLQENoYKwVtpYtxvngLg-191">
          <mxGeometry y="930" width="162" height="30" as="geometry" />
        </mxCell>
        <mxCell id="ZLQENoYKwVtpYtxvngLg-303" value="Password" style="text;strokeColor=none;fillColor=none;align=left;verticalAlign=middle;spacingLeft=4;spacingRight=4;overflow=hidden;points=[[0,0.5],[1,0.5]];portConstraint=eastwest;rotatable=0;whiteSpace=wrap;html=1;opacity=30;" vertex="1" parent="ZLQENoYKwVtpYtxvngLg-191">
          <mxGeometry y="960" width="162" height="30" as="geometry" />
        </mxCell>
        <mxCell id="ZLQENoYKwVtpYtxvngLg-308" value="Departmant" style="swimlane;fontStyle=0;childLayout=stackLayout;horizontal=1;startSize=30;horizontalStack=0;resizeParent=1;resizeParentMax=0;resizeLast=0;collapsible=1;marginBottom=0;whiteSpace=wrap;html=1;" vertex="1" parent="1">
          <mxGeometry x="360" y="30" width="140" height="120" as="geometry" />
        </mxCell>
        <mxCell id="ZLQENoYKwVtpYtxvngLg-309" value="Id" style="text;strokeColor=none;fillColor=none;align=left;verticalAlign=middle;spacingLeft=4;spacingRight=4;overflow=hidden;points=[[0,0.5],[1,0.5]];portConstraint=eastwest;rotatable=0;whiteSpace=wrap;html=1;" vertex="1" parent="ZLQENoYKwVtpYtxvngLg-308">
          <mxGeometry y="30" width="140" height="30" as="geometry" />
        </mxCell>
        <mxCell id="ZLQENoYKwVtpYtxvngLg-310" value="Name" style="text;strokeColor=none;fillColor=none;align=left;verticalAlign=middle;spacingLeft=4;spacingRight=4;overflow=hidden;points=[[0,0.5],[1,0.5]];portConstraint=eastwest;rotatable=0;whiteSpace=wrap;html=1;" vertex="1" parent="ZLQENoYKwVtpYtxvngLg-308">
          <mxGeometry y="60" width="140" height="30" as="geometry" />
        </mxCell>
        <mxCell id="ZLQENoYKwVtpYtxvngLg-311" value="EmployeeId" style="text;strokeColor=none;fillColor=none;align=left;verticalAlign=middle;spacingLeft=4;spacingRight=4;overflow=hidden;points=[[0,0.5],[1,0.5]];portConstraint=eastwest;rotatable=0;whiteSpace=wrap;html=1;" vertex="1" parent="ZLQENoYKwVtpYtxvngLg-308">
          <mxGeometry y="90" width="140" height="30" as="geometry" />
        </mxCell>
        <mxCell id="ZLQENoYKwVtpYtxvngLg-312" style="edgeStyle=orthogonalEdgeStyle;rounded=0;orthogonalLoop=1;jettySize=auto;html=1;exitX=1;exitY=0.5;exitDx=0;exitDy=0;" edge="1" parent="1" source="ZLQENoYKwVtpYtxvngLg-193" target="ZLQENoYKwVtpYtxvngLg-310">
          <mxGeometry relative="1" as="geometry" />
        </mxCell>
        <mxCell id="ZLQENoYKwVtpYtxvngLg-313" value="n" style="edgeLabel;html=1;align=center;verticalAlign=middle;resizable=0;points=[];" vertex="1" connectable="0" parent="ZLQENoYKwVtpYtxvngLg-312">
          <mxGeometry x="-0.5809" y="8" relative="1" as="geometry">
            <mxPoint x="-31" as="offset" />
          </mxGeometry>
        </mxCell>
        <mxCell id="ZLQENoYKwVtpYtxvngLg-315" value="1" style="edgeLabel;html=1;align=center;verticalAlign=middle;resizable=0;points=[];" vertex="1" connectable="0" parent="ZLQENoYKwVtpYtxvngLg-312">
          <mxGeometry x="-0.1872" y="4" relative="1" as="geometry">
            <mxPoint x="94" y="-2" as="offset" />
          </mxGeometry>
        </mxCell>
        <mxCell id="ZLQENoYKwVtpYtxvngLg-316" value="JobTitle&amp;nbsp;" style="swimlane;fontStyle=0;childLayout=stackLayout;horizontal=1;startSize=30;horizontalStack=0;resizeParent=1;resizeParentMax=0;resizeLast=0;collapsible=1;marginBottom=0;whiteSpace=wrap;html=1;" vertex="1" parent="1">
          <mxGeometry x="369" y="189" width="140" height="120" as="geometry" />
        </mxCell>
        <mxCell id="ZLQENoYKwVtpYtxvngLg-317" value="Id" style="text;strokeColor=none;fillColor=none;align=left;verticalAlign=middle;spacingLeft=4;spacingRight=4;overflow=hidden;points=[[0,0.5],[1,0.5]];portConstraint=eastwest;rotatable=0;whiteSpace=wrap;html=1;" vertex="1" parent="ZLQENoYKwVtpYtxvngLg-316">
          <mxGeometry y="30" width="140" height="30" as="geometry" />
        </mxCell>
        <mxCell id="ZLQENoYKwVtpYtxvngLg-318" value="Name" style="text;strokeColor=none;fillColor=none;align=left;verticalAlign=middle;spacingLeft=4;spacingRight=4;overflow=hidden;points=[[0,0.5],[1,0.5]];portConstraint=eastwest;rotatable=0;whiteSpace=wrap;html=1;" vertex="1" parent="ZLQENoYKwVtpYtxvngLg-316">
          <mxGeometry y="60" width="140" height="30" as="geometry" />
        </mxCell>
        <mxCell id="ZLQENoYKwVtpYtxvngLg-319" value="EmployeeId" style="text;strokeColor=none;fillColor=none;align=left;verticalAlign=middle;spacingLeft=4;spacingRight=4;overflow=hidden;points=[[0,0.5],[1,0.5]];portConstraint=eastwest;rotatable=0;whiteSpace=wrap;html=1;" vertex="1" parent="ZLQENoYKwVtpYtxvngLg-316">
          <mxGeometry y="90" width="140" height="30" as="geometry" />
        </mxCell>
        <mxCell id="ZLQENoYKwVtpYtxvngLg-324" style="edgeStyle=orthogonalEdgeStyle;rounded=0;orthogonalLoop=1;jettySize=auto;html=1;exitX=1;exitY=0.5;exitDx=0;exitDy=0;entryX=0.01;entryY=0.2;entryDx=0;entryDy=0;entryPerimeter=0;" edge="1" parent="1">
          <mxGeometry relative="1" as="geometry">
            <mxPoint x="170.6" y="246" as="sourcePoint" />
            <mxPoint x="369.0000000000001" y="246" as="targetPoint" />
            <Array as="points">
              <mxPoint x="170.6" y="252" />
              <mxPoint x="368.6" y="252" />
            </Array>
          </mxGeometry>
        </mxCell>
        <mxCell id="ZLQENoYKwVtpYtxvngLg-325" value="n" style="edgeLabel;html=1;align=center;verticalAlign=middle;resizable=0;points=[];" vertex="1" connectable="0" parent="ZLQENoYKwVtpYtxvngLg-324">
          <mxGeometry x="-0.7984" y="-2" relative="1" as="geometry">
            <mxPoint y="-5" as="offset" />
          </mxGeometry>
        </mxCell>
        <mxCell id="ZLQENoYKwVtpYtxvngLg-326" value="1" style="edgeLabel;html=1;align=center;verticalAlign=middle;resizable=0;points=[];" vertex="1" connectable="0" parent="ZLQENoYKwVtpYtxvngLg-324">
          <mxGeometry x="0.8194" relative="1" as="geometry">
            <mxPoint y="-9" as="offset" />
          </mxGeometry>
        </mxCell>
      </root>
    </mxGraphModel>
  </diagram>
</mxfile>
